# xmcd
# 
# Track frame offsets:
#     150
#     12009
#     25177
#     41827
#     58346
#     78751
#     91078
#     112165
#     127783
#     152129
#     166290
#     180272
#     199758
#     214776
#     227926
#     240238
#     253941
#     269056
#     283144
#     297966
#     321146
# 
# Disc length: 4452
# 
# Revision: 7
# Processed by: cddbd v1.5.2PL0 Copyright (c) Steve Scherf et al.
# Submitted via: fre:ac v1.0.31
# 
DISCID=27116215
DTITLE=R&B - What It Is! Disc 2
DYEAR=2006
DGENRE=R&B
TTITLE0=Cyril Neville - Gossip
TTITLE1=Mighty Hannibal - Somebody In The World For You
TTITLE2=Little Sister - Stanga
TTITLE3=Ananda Shankar - Jumpin' Jack Flash
TTITLE4=Brute Force - The Deacon
TTITLE5=Don Covay and The Jefferson Lemon Blues Band - Sookie Sookie
TTITLE6=Clarence Wheeler and The Enforcers - Right On
TTITLE7=Curtis Mayfield - (Don't Worry) If There's A Hell Below We're All Going To Go
TTITLE8=Johnny Harris - Stepping Stones
TTITLE9=6ix - I'm Just Like You
TTITLE10=The Unemployed - Funky Thing (Part 1)
TTITLE11=Shirley Scott - Messie Bessie
TTITLE12=Willie West - Fairchild
TTITLE13=The Gaturs - Cold Bear
TTITLE14=Mongo Santamaria - I Can't Get Next To You
TTITLE15=Lulu - Feelin' Alright
TTITLE16=Memphis Horns - Soul Bowl
TTITLE17=Hammer - Tuane
TTITLE18=Johnny Tolbert and De Thangs - Take It Off (Part 2)
TTITLE19=Harlem River Drive featuring Eddie Palmieri and Jimmy Norman - Seeds Of Life
TTITLE20=Wilson Pickett - Engine Number 9
EXTD=
EXTT0=
EXTT1=
EXTT2=
EXTT3=
EXTT4=
EXTT5=
EXTT6=
EXTT7=
EXTT8=
EXTT9=
EXTT10=
EXTT11=
EXTT12=
EXTT13=
EXTT14=
EXTT15=
EXTT16=
EXTT17=
EXTT18=
EXTT19=
EXTT20=
PLAYORDER=
